# xmcd
#
# Track frame offsets:
#	150
#	8471
#	13916
#	19475
#	29564
#	41888
#	45388
#	51065
#	63315
#	79191
#	79968
#	82968
#	96569
#	106297
#	122778
#	124370
#	141249
#	146657
#
# Disc length: 2095 seconds
#
# Revision: 0
# Processed by: cddbd v1.5PL3 Copyright (c) Steve Scherf et al.
# Submitted via: EasyCDDAExtractor 4.5.0.2
#
DISCID=fb082d12
DTITLE=Elvis, Carl Perkins, Jerry Lee Lewis, johnny cash - the million dollar 
DTITLE=quartet
DYEAR=1955
DGENRE=Blues
TTITLE0=At the end of the road
TTITLE1=jerry's boogie
TTITLE2=that's my desire
TTITLE3=don't be cruel
TTITLE4=soft and tenderly
TTITLE5=you belong to my heart
TTITLE6=walk that lonesome valley
TTITLE7=i shall not be moved
TTITLE8=summertime has passed and gone
TTITLE9=i hear a sweet voice calling
TTITLE10=paralysed
TTITLE11=keeper of the key
TTITLE12=there's no place like homo
TTITLE13=rip it up
TTITLE14=crazy arms
TTITLE15=is it so strange
TTITLE16=don´t forbid me
TTITLE17=when the saints go marching in
EXTD=
EXTT0=
EXTT1=
EXTT2=
EXTT3=
EXTT4=
EXTT5=
EXTT6=
EXTT7=
EXTT8=
EXTT9=
EXTT10=
EXTT11=
EXTT12=
EXTT13=
EXTT14=
EXTT15=
EXTT16=
EXTT17=
PLAYORDER=
